<svg width="64" height="64" viewBox="0 0 64 64" fill="none" xmlns="http://www.w3.org/2000/svg">
  <defs>
    <linearGradient id="recycleGradient" x1="0%" y1="0%" x2="100%" y2="100%">
      <stop offset="0%" stop-color="#4ade80" />
      <stop offset="100%" stop-color="#16a34a" />
    </linearGradient>
  </defs>
  
  <!-- Background Elements -->
  <circle cx="32" cy="32" r="24" fill="#4ade80" opacity="0.1"/>
  
  <!-- Recycle Arrows -->
  <path d="M32 16L38 24H26L32 16Z" fill="url(#recycleGradient)" stroke="#16a34a" stroke-width="1.5" stroke-linejoin="round"/>
  <path d="M20 40L14 32H26L20 40Z" fill="url(#recycleGradient)" stroke="#16a34a" stroke-width="1.5" stroke-linejoin="round"/>
  <path d="M44 40L38 32H50L44 40Z" fill="url(#recycleGradient)" stroke="#16a34a" stroke-width="1.5" stroke-linejoin="round"/>
  
  <!-- Connecting Lines -->
  <path d="M32 16L20 40" stroke="#16a34a" stroke-width="1.5" stroke-linecap="round"/>
  <path d="M44 40L26 24" stroke="#16a34a" stroke-width="1.5" stroke-linecap="round"/>
  <path d="M38 32L14 32" stroke="#16a34a" stroke-width="1.5" stroke-linecap="round"/>
  
  <!-- Leaf Decoration -->
  <path d="M32 48C32 44 34 42 38 42C38 46 36 48 32 48Z" fill="#86efac" stroke="#16a34a" stroke-width="1" stroke-linejoin="round"/>
  
  <!-- Decorative Elements -->
  <circle cx="48" cy="16" r="2" fill="#86efac" opacity="0.8"/>
  <circle cx="16" cy="16" r="1.5" fill="#86efac" opacity="0.6"/>
  <circle cx="48" cy="48" r="2" fill="#86efac" opacity="0.7"/>
</svg>