<svg width="64" height="64" viewBox="0 0 64 64" fill="none" xmlns="http://www.w3.org/2000/svg">
  <defs>
    <linearGradient id="shieldGradient" x1="0%" y1="0%" x2="100%" y2="100%">
      <stop offset="0%" stop-color="#4ade80" />
      <stop offset="100%" stop-color="#16a34a" />
    </linearGradient>
  </defs>
  
  <!-- Background Elements -->
  <circle cx="32" cy="32" r="24" fill="#4ade80" opacity="0.1"/>
  
  <!-- Shield Shape -->
  <path d="M32 52C32 52 48 44 48 28V16L32 12L16 16V28C16 44 32 52 32 52Z" 
        fill="url(#shieldGradient)" stroke="#16a34a" stroke-width="2" stroke-linejoin="round"/>
  
  <!-- Leaf Inside Shield -->
  <path d="M26 32C26 26 30 24 36 24C36 30 32 32 26 32Z" fill="#dcfce7" stroke="#16a34a" stroke-width="1" stroke-linejoin="round"/>
  <path d="M26 32C26 38 30 40 36 40C36 34 32 32 26 32Z" fill="#dcfce7" stroke="#16a34a" stroke-width="1" stroke-linejoin="round"/>
  
  <!-- Leaf Vein -->
  <path d="M26 32H36" stroke="#16a34a" stroke-width="1" stroke-linecap="round"/>
  
  <!-- Decorative Elements -->
  <circle cx="44" cy="20" r="2" fill="#86efac" opacity="0.8"/>
  <circle cx="20" cy="20" r="1.5" fill="#86efac" opacity="0.6"/>
  <circle cx="32" cy="56" r="2" fill="#86efac" opacity="0.8"/>
  
  <!-- Subtle Glow -->
  <circle cx="32" cy="32" r="20" fill="#4ade80" opacity="0.1"/>
</svg>