<svg width="64" height="64" viewBox="0 0 64 64" fill="none" xmlns="http://www.w3.org/2000/svg">
  <defs>
    <linearGradient id="awardGradient" x1="0%" y1="0%" x2="100%" y2="100%">
      <stop offset="0%" stop-color="#4ade80" />
      <stop offset="100%" stop-color="#16a34a" />
    </linearGradient>
  </defs>
  
  <!-- Background Elements -->
  <circle cx="32" cy="32" r="24" fill="#4ade80" opacity="0.1"/>
  
  <!-- Award Medal -->
  <circle cx="32" cy="28" r="16" fill="url(#awardGradient)" stroke="#16a34a" stroke-width="2"/>
  
  <!-- Ribbon -->
  <path d="M24 40L20 52L32 46L44 52L40 40" stroke="#16a34a" stroke-width="2" stroke-linecap="round" stroke-linejoin="round"/>
  
  <!-- Star in Medal -->
  <path d="M32 20L34.5 25.1L40 26L36 30L37 35.5L32 33L27 35.5L28 30L24 26L29.5 25.1L32 20Z" 
        fill="#dcfce7" stroke="#16a34a" stroke-width="1" stroke-linejoin="round"/>
  
  <!-- Leaf Decoration -->
  <path d="M48 16C48 14 49 12 52 12C52 14 51 16 48 16Z" fill="#86efac" stroke="#16a34a" stroke-width="1" stroke-linejoin="round"/>
  
  <!-- Decorative Elements -->
  <circle cx="16" cy="16" r="2" fill="#86efac" opacity="0.8"/>
  <circle cx="48" cy="48" r="1.5" fill="#86efac" opacity="0.6"/>
  <circle cx="16" cy="48" r="2" fill="#86efac" opacity="0.7"/>
</svg>