<svg width="800" height="600" viewBox="0 0 800 600" fill="none" xmlns="http://www.w3.org/2000/svg">
  <!-- Phone Frame -->
  <rect x="200" y="50" width="400" height="500" rx="40" fill="#FFFFFF" stroke="#E2E8F0" stroke-width="8"/>
  
  <!-- Screen -->
  <rect x="220" y="70" width="360" height="460" rx="30" fill="#F0FDF4"/>
  
  <!-- App Header -->
  <rect x="220" y="70" width="360" height="80" rx="30" fill="#10B981"/>
  <circle cx="260" cy="110" r="20" fill="#FFFFFF"/>
  <rect x="290" y="100" width="120" height="10" rx="5" fill="#FFFFFF"/>
  <rect x="290" y="120" width="80" height="8" rx="4" fill="#FFFFFF" fill-opacity="0.7"/>
  <circle cx="540" cy="110" r="15" fill="#FFFFFF" fill-opacity="0.7"/>
  
  <!-- Main Content -->
  <!-- Eco Impact Card -->
  <rect x="240" y="170" width="320" height="100" rx="16" fill="#FFFFFF" stroke="#D1FAE5" stroke-width="2"/>
  <circle cx="280" cy="220" r="30" fill="#D1FAE5"/>
  <path d="M270 220L280 230L290 210" stroke="#10B981" stroke-width="4" stroke-linecap="round" stroke-linejoin="round"/>
  <rect x="320" y="200" width="100" height="12" rx="6" fill="#10B981"/>
  <rect x="320" y="220" width="200" height="8" rx="4" fill="#94A3B8"/>
  <rect x="320" y="235" width="150" height="8" rx="4" fill="#94A3B8"/>
  
  <!-- Recycling Progress -->
  <rect x="240" y="290" width="320" height="120" rx="16" fill="#FFFFFF" stroke="#D1FAE5" stroke-width="2"/>
  <rect x="260" y="310" width="150" height="12" rx="6" fill="#334155"/>
  <rect x="260" y="330" width="280" height="8" rx="4" fill="#94A3B8"/>
  
  <!-- Progress Bars -->
  <rect x="260" y="350" width="280" height="10" rx="5" fill="#E2E8F0"/>
  <rect x="260" y="350" width="200" height="10" rx="5" fill="#10B981"/>
  
  <rect x="260" y="370" width="280" height="10" rx="5" fill="#E2E8F0"/>
  <rect x="260" y="370" width="150" height="10" rx="5" fill="#10B981"/>
  
  <rect x="260" y="390" width="280" height="10" rx="5" fill="#E2E8F0"/>
  <rect x="260" y="390" width="220" height="10" rx="5" fill="#10B981"/>
  
  <!-- Bottom Navigation -->
  <rect x="220" y="480" width="360" height="50" rx="25" fill="#FFFFFF" stroke="#E2E8F0" stroke-width="2"/>
  
  <!-- Nav Icons -->
  <circle cx="280" cy="505" r="15" fill="#10B981"/>
  <circle cx="360" cy="505" r="15" fill="#E2E8F0"/>
  <circle cx="440" cy="505" r="15" fill="#E2E8F0"/>
  <circle cx="520" cy="505" r="15" fill="#E2E8F0"/>
  
  <!-- Decorative Elements -->
  <circle cx="150" cy="150" r="40" fill="#D1FAE5" fill-opacity="0.5"/>
  <circle cx="650" cy="450" r="50" fill="#D1FAE5" fill-opacity="0.5"/>
  <circle cx="700" cy="200" r="30" fill="#D1FAE5" fill-opacity="0.5"/>
  <circle cx="100" cy="400" r="25" fill="#D1FAE5" fill-opacity="0.5"/>
  
  <!-- Leaf Decorations -->
  <path d="M120 250C120 250 150 220 180 250C210 280 180 310 180 310C180 310 150 280 120 250Z" fill="#10B981" fill-opacity="0.3"/>
  <path d="M650 300C650 300 680 270 710 300C740 330 710 360 710 360C710 360 680 330 650 300Z" fill="#10B981" fill-opacity="0.3"/>
</svg>