<svg width="64" height="64" viewBox="0 0 64 64" fill="none" xmlns="http://www.w3.org/2000/svg">
  <defs>
    <linearGradient id="communityGradient" x1="0%" y1="0%" x2="100%" y2="100%">
      <stop offset="0%" stop-color="#4ade80" />
      <stop offset="100%" stop-color="#16a34a" />
    </linearGradient>
  </defs>
  
  <!-- Background Elements -->
  <circle cx="32" cy="32" r="24" fill="#4ade80" opacity="0.1"/>
  
  <!-- Earth/Community Circle -->
  <circle cx="32" cy="32" r="20" fill="url(#communityGradient)" stroke="#16a34a" stroke-width="2"/>
  
  <!-- People Silhouettes -->
  <path d="M32 20C33.6569 20 35 18.6569 35 17C35 15.3431 33.6569 14 32 14C30.3431 14 29 15.3431 29 17C29 18.6569 30.3431 20 32 20Z" fill="#dcfce7"/>
  <path d="M32 20V26" stroke="#dcfce7" stroke-width="2" stroke-linecap="round"/>
  
  <path d="M24 24C25.6569 24 27 22.6569 27 21C27 19.3431 25.6569 18 24 18C22.3431 18 21 19.3431 21 21C21 22.6569 22.3431 24 24 24Z" fill="#dcfce7"/>
  <path d="M24 24V30" stroke="#dcfce7" stroke-width="2" stroke-linecap="round"/>
  
  <path d="M40 24C41.6569 24 43 22.6569 43 21C43 19.3431 41.6569 18 40 18C38.3431 18 37 19.3431 37 21C37 22.6569 38.3431 24 40 24Z" fill="#dcfce7"/>
  <path d="M40 24V30" stroke="#dcfce7" stroke-width="2" stroke-linecap="round"/>
  
  <!-- Hands/Connection Lines -->
  <path d="M32 26C32 26 28 32 24 30" stroke="#dcfce7" stroke-width="2" stroke-linecap="round"/>
  <path d="M32 26C32 26 36 32 40 30" stroke="#dcfce7" stroke-width="2" stroke-linecap="round"/>
  
  <!-- Leaf Decorations -->
  <path d="M22 40C22 36 24 34 28 34C28 38 26 40 22 40Z" fill="#dcfce7" stroke="#16a34a" stroke-width="1" stroke-linejoin="round"/>
  <path d="M42 40C42 36 40 34 36 34C36 38 38 40 42 40Z" fill="#dcfce7" stroke="#16a34a" stroke-width="1" stroke-linejoin="round"/>
  
  <!-- Decorative Elements -->
  <circle cx="48" cy="16" r="2" fill="#86efac" opacity="0.8"/>
  <circle cx="16" cy="16" r="1.5" fill="#86efac" opacity="0.6"/>
  <circle cx="32" cy="48" r="2" fill="#86efac" opacity="0.7"/>
</svg>