<svg width="64" height="64" viewBox="0 0 64 64" fill="none" xmlns="http://www.w3.org/2000/svg">
  <defs>
    <linearGradient id="usersGradient" x1="0%" y1="0%" x2="100%" y2="100%">
      <stop offset="0%" stop-color="#4ade80" />
      <stop offset="100%" stop-color="#16a34a" />
    </linearGradient>
  </defs>
  
  <!-- Background Elements -->
  <circle cx="32" cy="32" r="24" fill="#4ade80" opacity="0.1"/>
  
  <!-- First User -->
  <circle cx="24" cy="24" r="8" fill="url(#usersGradient)" stroke="#16a34a" stroke-width="1.5"/>
  <path d="M12 48C12 40.268 17.268 34 24 34C30.732 34 36 40.268 36 48" stroke="#16a34a" stroke-width="2" stroke-linecap="round"/>
  
  <!-- Second User -->
  <circle cx="40" cy="24" r="8" fill="url(#usersGradient)" stroke="#16a34a" stroke-width="1.5"/>
  <path d="M28 48C28 40.268 33.268 34 40 34C46.732 34 52 40.268 52 48" stroke="#16a34a" stroke-width="2" stroke-linecap="round"/>
  
  <!-- Leaf Decoration -->
  <path d="M32 16C32 14 33 12 36 12C36 14 35 16 32 16Z" fill="#86efac" stroke="#16a34a" stroke-width="1" stroke-linejoin="round"/>
  
  <!-- Decorative Elements -->
  <circle cx="48" cy="12" r="2" fill="#86efac" opacity="0.8"/>
  <circle cx="16" cy="12" r="1.5" fill="#86efac" opacity="0.6"/>
  <circle cx="32" cy="52" r="2" fill="#86efac" opacity="0.7"/>
</svg>